<svg width="220" height="64" fill="none" xmlns="http://www.w3.org/2000/svg"><path d="M95.657 21.152a7.971 7.971 0 0 1 3.19-5.374 11.701 11.701 0 0 1 7.017-1.874l-.69 4.112a26.92 26.92 0 0 0-2.151 2.363l.419.284a22.98 22.98 0 0 1 5.658-5.157 11.285 11.285 0 0 1 5.828-1.602 6.358 6.358 0 0 1 4.414 1.568 7.964 7.964 0 0 1 2.365 4.385 14.92 14.92 0 0 1 5.137-4.385 14.228 14.228 0 0 1 6.598-1.534 8.189 8.189 0 0 1 6.382 2.579 9.415 9.415 0 0 1 2.365 6.816 15.711 15.711 0 0 1-.271 2.998l-3.203 18.176a5.793 5.793 0 0 1-2.987 4.248 15.795 15.795 0 0 1-7.356 1.33l4.029-22.936c.09-.757.135-1.245.135-1.465 0-2.469-1.18-3.703-3.542-3.703a5.636 5.636 0 0 0-4.232 1.817 9.305 9.305 0 0 0-2.263 5.021l-2.773 15.688a5.807 5.807 0 0 1-2.987 4.248 15.204 15.204 0 0 1-7.22 1.33l4.029-22.936c.09-.757.135-1.245.135-1.465a3.717 3.717 0 0 0-.905-2.726 3.217 3.217 0 0 0-2.569-.977 5.64 5.64 0 0 0-4.311 1.885 10.452 10.452 0 0 0-2.263 5.305l-2.705 15.336A5.604 5.604 0 0 1 99.958 47a5.575 5.575 0 0 1-2.016 1.754 15.88 15.88 0 0 1-7.366 1.33l5.08-28.933Zm-18.378-1.625c.147-.89.5-1.733 1.03-2.461a5.744 5.744 0 0 1 2.025-1.73 15.79 15.79 0 0 1 7.435-1.386l-5.307 30.534a5.579 5.579 0 0 1-.999 2.508 5.55 5.55 0 0 1-2.057 1.74 16.354 16.354 0 0 1-7.434 1.33l5.307-30.535Zm6.258-8.236a5.644 5.644 0 0 1-3.825-1.25 4.328 4.328 0 0 1-1.46-3.35 6.19 6.19 0 0 1 2.196-4.737A7.35 7.35 0 0 1 85.585 0a5.34 5.34 0 0 1 3.746 1.33 4.111 4.111 0 0 1 1.46 3.27 6.188 6.188 0 0 1-2.196 4.749 7.17 7.17 0 0 1-5.024 1.942h-.034Zm-27.16 38.77a10.365 10.365 0 0 1-7.389-2.646 9.518 9.518 0 0 1-2.773-7.111c.003-.819.07-1.635.204-2.443l5.659-32.283a5.801 5.801 0 0 1 2.988-4.248A16.522 16.522 0 0 1 62.567 0L55.97 37.487c-.073.462-.119.929-.135 1.397a2.747 2.747 0 0 0 .826 2.272c.85.535 1.85.781 2.851.704a12.06 12.06 0 0 0 5.444-1.397 3.966 3.966 0 0 1 1.131 2.93 5.695 5.695 0 0 1-.782 2.73 5.668 5.668 0 0 1-2.002 2.008 11.6 11.6 0 0 1-6.891 1.93h-.034Zm-36.687 0c-6.035 0-10.852-.953-14.45-2.862-3.6-1.908-5.346-4.532-5.24-7.872 0-5.112 3.218-7.672 9.653-7.68-.054.56-.077 1.12-.068 1.682a7.876 7.876 0 0 0 .619 3.574 7.849 7.849 0 0 0 2.153 2.912c1.856 1.432 4.527 2.159 8.058 2.159 2.743.14 5.47-.514 7.853-1.886a5.941 5.941 0 0 0 2.139-2.19 5.97 5.97 0 0 0 .77-2.967 3.416 3.416 0 0 0-.895-2.42 7.837 7.837 0 0 0-3.134-1.874 40.874 40.874 0 0 0-6.111-1.886c-5.507-1.318-9.558-3.021-12.154-5.112a10.024 10.024 0 0 1-2.84-3.563 10.063 10.063 0 0 1-.973-4.457c-.065-2.96.81-5.865 2.5-8.292a15.961 15.961 0 0 1 7.288-5.487A30.787 30.787 0 0 1 26.107-.045a30.638 30.638 0 0 1 9.166 1.26 14.415 14.415 0 0 1 6.258 3.556 6.906 6.906 0 0 1 2.263 5.09c0 4.543-3.1 6.936-9.302 7.178.057-.52.088-1.044.09-1.567 0-2.552-.754-4.412-2.263-5.578-1.509-1.166-3.81-1.768-6.903-1.806a13.74 13.74 0 0 0-7.502 1.704 5.26 5.26 0 0 0-2.011 1.99 5.287 5.287 0 0 0-.694 2.747 3.918 3.918 0 0 0 2.014 3.351 25.756 25.756 0 0 0 7.22 2.43c5.802 1.387 10.06 3.182 12.776 5.385a10.056 10.056 0 0 1 3.039 3.616 10.098 10.098 0 0 1 1.058 4.609 14.454 14.454 0 0 1-2.637 8.644c-1.9 2.56-4.51 4.5-7.503 5.578a30.528 30.528 0 0 1-11.452 1.92h-.034Z" fill="#FF7900"/><path d="M183.188 64a4.895 4.895 0 0 1-3.825-1.465 6.287 6.287 0 0 1-1.245-4.18c.01-.819.078-1.635.204-2.443 1.184.274 2.395.415 3.61.42a6.38 6.38 0 0 0 4.244-1.397 20.308 20.308 0 0 0 4.164-5.225l1.46-2.375-7.639-32.624a6.211 6.211 0 0 1 1.754-.489c.743-.17 1.502-.261 2.264-.272a7.048 7.048 0 0 1 3.892.977 3.691 3.691 0 0 1 1.935 2.51l3.61 18.175-1.731 3.408.554.216 12.369-21.822a6.074 6.074 0 0 1 2.773-2.51 9.202 9.202 0 0 1 4.232-.977c.818.007 1.633.099 2.433.273a4.664 4.664 0 0 1 1.743.488l-22.078 37.816a30.459 30.459 0 0 1-7.084 8.781A11.935 11.935 0 0 1 183.188 64ZM152.894 5.305a5.225 5.225 0 0 1 2.083-3.283 6.06 6.06 0 0 1 3.892-1.386h31.573a13.67 13.67 0 0 1-2.716 6.69 6.783 6.783 0 0 1-5.206 2.091h-20.109l-1.878 10.667h18.196a13.809 13.809 0 0 1-2.704 6.747 6.788 6.788 0 0 1-5.274 2.022h-11.746l-2.512 14.166a7.538 7.538 0 0 1-3.395 5.396c-1.765 1.12-4.451 1.68-8.057 1.68l7.853-44.79Z" fill="#9400B5"/></svg>