<svg width="64" height="38" fill="none" xmlns="http://www.w3.org/2000/svg"><path d="M63.5 19c0 10.4-8.4 18.9-18.9 18.9-10.4 0-18.9-8.5-18.9-18.9C25.7 8.6 34.1.1 44.5.1c10.6 0 19 8.5 19 18.9Z" fill="#F8B02B"/><path d="M19.195.3C8.895.4.5 8.6.5 19c0 10.4 8.4 18.9 18.9 18.9 4.9 0 9.3-1.9 12.7-4.9.7-.6 1.3-1.3 1.9-2h-3.9c-.5-.6-1-1.3-1.4-1.9h6.7c.4-.6.8-1.3 1.1-2h-8.9c-.3-.6-.6-1.3-.8-2h10.4c.6-1.9 1-3.9 1-6 0-1.4-.2-2.7-.4-4H26.2c.1-.7.3-1.3.5-2h10.4c-.2-.7-.5-1.4-.8-2h-8.8c.3-.7.7-1.3 1.1-2h6.7c-.4-.7-.9-1.4-1.5-2h-3.7c.6-.7 1.2-1.3 1.9-1.9C28.7 2.1 24.2.3 19.3.3h-.105Z" fill="#E41D2C"/><path d="M19.4 37.9c4.9 0 9.3-1.9 12.7-4.9.7-.6 1.3-1.3 1.9-2h-3.9c-.5-.6-1-1.3-1.4-1.9h6.7c.4-.6.8-1.3 1.1-2h-8.9c-.3-.6-.6-1.3-.8-2h10.4c.6-1.9 1-3.9 1-6 0-1.4-.2-2.7-.4-4H26.2c.1-.7.3-1.3.5-2h10.4c-.2-.7-.5-1.4-.8-2h-8.8c.3-.7.7-1.3 1.1-2h6.7c-.4-.7-.9-1.4-1.5-2h-3.7c.6-.7 1.2-1.3 1.9-1.9C28.7 2.1 24.2.3 19.3.3h-.1" fill="#E41D2C"/><path d="m26.1 23.8.3-1.7c-.1 0-.3.1-.5.1-.7 0-.8-.4-.7-.6l.6-3.5h1.1l.3-1.9h-1l.2-1.2h-2s-1.2 6.6-1.2 7.4c0 1.2.7 1.7 1.6 1.7.6 0 1.1-.2 1.3-.3Zm.7-3.2c0 2.8 1.9 3.5 3.5 3.5 1.5 0 2.1-.3 2.1-.3l.4-1.9s-1.1.5-2.1.5c-2.2 0-1.8-1.6-1.8-1.6H33s.3-1.3.3-1.8c0-1.3-.7-2.9-2.9-2.9-2.1-.2-3.6 2-3.6 4.5Zm3.5-2.9c1.1 0 .9 1.3.9 1.4H29c0-.1.2-1.4 1.3-1.4ZM43 23.8l.4-2.2s-1 .5-1.7.5c-1.4 0-2-1.1-2-2.3 0-2.4 1.2-3.7 2.6-3.7 1 0 1.8.6 1.8.6l.3-2.1s-1.2-.5-2.3-.5c-2.3 0-4.6 2-4.6 5.8 0 2.5 1.2 4.2 3.6 4.2.8 0 1.9-.3 1.9-.3Zm-27.9-7.9c-1.4 0-2.4.4-2.4.4l-.3 1.7s.9-.4 2.2-.4c.7 0 1.3.1 1.3.7 0 .4-.1.5-.1.5h-.9c-1.7 0-3.6.7-3.6 3 0 1.8 1.2 2.2 1.9 2.2 1.4 0 2-.9 2.1-.9l-.1.8H17l.8-5.5c0-2.4-2-2.5-2.7-2.5Zm.4 4.5c0 .3-.2 1.9-1.4 1.9-.6 0-.8-.5-.8-.8 0-.5.3-1.2 1.8-1.2.3.1.4.1.4.1Zm4.2 3.6c.5 0 3 .1 3-2.6 0-2.5-2.4-2-2.4-3 0-.5.4-.7 1.1-.7.3 0 1.4.1 1.4.1l.3-1.8s-.7-.2-1.9-.2c-1.5 0-3 .6-3 2.6 0 2.3 2.5 2.1 2.5 3 0 .6-.7.7-1.2.7-.9 0-1.8-.3-1.8-.3l-.3 1.8c.1.2.6.4 2.3.4Zm39.9-9.7-.4 2.7s-.8-1-1.9-1c-1.8 0-3.4 2.2-3.4 4.8 0 1.6.8 3.3 2.5 3.3 1.2 0 1.9-.8 1.9-.8l-.1.7h2l1.5-9.6-2.1-.1Zm-.9 5.3c0 1.1-.5 2.5-1.6 2.5-.7 0-1.1-.6-1.1-1.6 0-1.6.7-2.6 1.6-2.6.7 0 1.1.5 1.1 1.7ZM4.2 23.9l1.2-7.2.2 7.2H7l2.6-7.2-1.1 7.2h2.1l1.6-9.6H8.9l-2 5.9-.1-5.9H3.9l-1.6 9.6h1.9Zm31 0c.6-3.3.7-6 2.1-5.5.2-1.3.5-1.8.7-2.3h-.4c-.9 0-1.6 1.2-1.6 1.2l.2-1.1h-1.9L33 24h2.2v-.1Zm12.4-8c-1.4 0-2.4.4-2.4.4l-.3 1.7s.9-.4 2.2-.4c.7 0 1.3.1 1.3.7 0 .4-.1.5-.1.5h-.9c-1.7 0-3.6.7-3.6 3 0 1.8 1.2 2.2 1.9 2.2 1.4 0 2-.9 2.1-.9l-.1.8h1.8l.8-5.5c.1-2.4-2-2.5-2.7-2.5Zm.5 4.5c0 .3-.2 1.9-1.4 1.9-.6 0-.8-.5-.8-.8 0-.5.3-1.2 1.8-1.2.3.1.3.1.4.1Zm3.9 3.5c.6-3.3.7-6 2.1-5.5.2-1.3.5-1.8.7-2.3h-.4c-.9 0-1.6 1.2-1.6 1.2l.2-1.1h-1.9L49.8 24H52v-.1Z" fill="#fff"/><path d="M23 22.4c0 1.2.7 1.7 1.6 1.7.7 0 1.3-.2 1.5-.3l.3-1.7c-.1 0-.3.1-.5.1-.7 0-.8-.4-.7-.6l.6-3.5h1.1l.3-1.9h-1l.2-1.2-3.4 7.4Zm4.8-1.8c0 2.8.9 3.5 2.5 3.5 1.5 0 2.1-.3 2.1-.3l.4-1.9s-1.1.5-2.1.5c-2.2 0-1.8-1.6-1.8-1.6H33s.3-1.3.3-1.8c0-1.3-.7-2.9-2.9-2.9-2.1-.2-2.6 2-2.6 4.5Zm2.5-2.9c1.1 0 1.3 1.3 1.3 1.4H29c0-.1.2-1.4 1.3-1.4ZM43 23.8l.4-2.2s-1 .5-1.7.5c-1.4 0-2-1.1-2-2.3 0-2.4 1.2-3.7 2.6-3.7 1 0 1.8.6 1.8.6l.3-2.1s-1.2-.5-2.3-.5c-2.3 0-3.6 2-3.6 5.8 0 2.5.2 4.2 2.6 4.2.8 0 1.9-.3 1.9-.3Zm-30.6-5.7s.9-.4 2.2-.4c.7 0 1.3.1 1.3.7 0 .4-.1.5-.1.5h-.9c-1.7 0-3.6.7-3.6 3 0 1.8 1.2 2.2 1.9 2.2 1.4 0 2-.9 2.1-.9l-.1.8H17l.8-5.5c0-2.3-2-2.4-2.8-2.4l-2.6 2Zm4.1 2.3c0 .3-1.2 1.9-2.4 1.9-.6 0-.8-.5-.8-.8 0-.5.3-1.2 1.8-1.2.3.1 1.4.1 1.4.1Zm1 3.4s.6.2 2.3.2c.5 0 3 .1 3-2.6 0-2.5-2.4-2-2.4-3 0-.5.4-.7 1.1-.7.3 0 1.4.1 1.4.1l.3-1.8s-.7-.2-1.9-.2c-1.5 0-2 .6-2 2.6 0 2.3 1.5 2.1 1.5 3 0 .6-.7.7-1.2.7l-2.1 1.7ZM59.2 17s-.8-1-1.9-1c-1.8 0-2.4 2.2-2.4 4.8 0 1.6-.2 3.3 1.5 3.3 1.2 0 1.9-.8 1.9-.8l-.1.7h2l1.5-9.6-2.5 2.6Zm-.1 2.6c0 1.1-.9 2.5-2 2.5-.7 0-1.1-.6-1.1-1.6 0-1.6.7-2.6 1.6-2.6.7 0 1.5.5 1.5 1.7ZM4.2 23.9l1.2-7.2.2 7.2H7l2.6-7.2-1.1 7.2h2.1l1.6-9.6H9.7l-2.8 5.9-.1-5.9H5.7l-3.4 9.6h1.9Zm28.9 0h2.1c.6-3.3.7-6 2.1-5.5.2-1.3.5-1.8.7-2.3h-.4c-.9 0-1.6 1.2-1.6 1.2l.2-1.1-3.1 7.7Zm11.8-5.8s.9-.4 2.2-.4c.7 0 1.3.1 1.3.7 0 .4-.1.5-.1.5h-.9c-1.7 0-3.6.7-3.6 3 0 1.8 1.2 2.2 1.9 2.2 1.4 0 2-.9 2.1-.9l-.1.8h1.8l.8-5.5c0-2.3-2-2.4-2.8-2.4l-2.6 2Zm4.1 2.3c0 .3-1.2 1.9-2.4 1.9-.6 0-.8-.5-.8-.8 0-.5.3-1.2 1.8-1.2.4.1 1.4.1 1.4.1Zm.9 3.5H52c.6-3.3.7-6 2.1-5.5.2-1.3.5-1.8.7-2.3h-.4c-.9 0-1.6 1.2-1.6 1.2l.2-1.1" fill="#DCE5E5"/></svg>