<svg width="58" height="17" fill="none" xmlns="http://www.w3.org/2000/svg"><path d="M15.63 0v.007c-.008 0-2.267-.007-2.87 2.152-.551 1.98-2.108 7.441-2.15 7.592h-.431s-1.592-5.584-2.151-7.6C7.425-.006 5.158 0 5.158 0H0v16.418h5.161v-9.75h.43l3.013 9.75h3.583L15.2 6.674h.43v9.744h5.162V0h-5.162Zm18.854 0S32.97.136 32.26 1.721l-3.656 8.03h-.43V0h-5.161v16.418h4.874s1.585-.143 2.295-1.72l3.584-8.03h.43v9.75h5.161V0h-4.874Zm7.17 7.456v8.962h5.16v-5.233h5.592a5.585 5.585 0 0 0 5.269-3.726H41.653v-.003Z" fill="#4DB45E"/><path d="M52.409 0h-11.48a8.247 8.247 0 0 0 8.109 6.74h8.847c.08-.374.115-.754.115-1.148A5.59 5.59 0 0 0 52.41 0Z" fill="url(#a)"/><defs><linearGradient id="a" x1="40.929" y1="3.37" x2="58" y2="3.37" gradientUnits="userSpaceOnUse"><stop offset=".3" stop-color="#00B4E6"/><stop offset="1" stop-color="#088CCB"/></linearGradient></defs></svg>