<svg width="120" height="24" fill="none" xmlns="http://www.w3.org/2000/svg"><path d="M11.303 2.736a.8.8 0 0 1 1.394 0l2.456 4.358a.8.8 0 0 0 .539.391l4.903.99a.8.8 0 0 1 .43 1.325l-3.385 3.683a.8.8 0 0 0-.206.633l.575 4.969a.8.8 0 0 1-1.128.819l-4.548-2.082a.8.8 0 0 0-.666 0L7.12 19.904a.8.8 0 0 1-1.128-.82l.574-4.968a.8.8 0 0 0-.205-.633L2.974 9.8a.8.8 0 0 1 .431-1.325l4.903-.99a.8.8 0 0 0 .539-.391l2.456-4.358ZM35.303 2.736a.8.8 0 0 1 1.394 0l2.456 4.358a.8.8 0 0 0 .539.391l4.903.99a.8.8 0 0 1 .43 1.325l-3.385 3.683a.8.8 0 0 0-.206.633l.575 4.969a.8.8 0 0 1-1.128.819l-4.548-2.082a.8.8 0 0 0-.666 0l-4.548 2.082a.8.8 0 0 1-1.128-.82l.575-4.968a.8.8 0 0 0-.206-.633L26.974 9.8a.8.8 0 0 1 .431-1.325l4.903-.99a.8.8 0 0 0 .539-.391l2.456-4.358ZM59.303 2.736a.8.8 0 0 1 1.394 0l2.456 4.358a.8.8 0 0 0 .539.391l4.903.99a.8.8 0 0 1 .43 1.325l-3.385 3.683a.8.8 0 0 0-.206.633l.575 4.969a.8.8 0 0 1-1.128.819l-4.548-2.082a.8.8 0 0 0-.666 0l-4.548 2.082a.8.8 0 0 1-1.128-.82l.575-4.968a.8.8 0 0 0-.206-.633L50.974 9.8a.8.8 0 0 1 .431-1.325l4.903-.99a.8.8 0 0 0 .539-.391l2.456-4.358ZM83.303 2.736a.8.8 0 0 1 1.394 0l2.456 4.358a.8.8 0 0 0 .539.391l4.903.99a.8.8 0 0 1 .43 1.325l-3.385 3.683a.8.8 0 0 0-.206.633l.575 4.969a.8.8 0 0 1-1.128.819l-4.548-2.082a.8.8 0 0 0-.666 0l-4.548 2.082a.8.8 0 0 1-1.128-.82l.575-4.968a.8.8 0 0 0-.206-.633L74.975 9.8a.8.8 0 0 1 .43-1.325l4.903-.99a.8.8 0 0 0 .539-.391l2.456-4.358ZM107.303 2.736a.8.8 0 0 1 1.394 0l2.456 4.358a.8.8 0 0 0 .539.391l4.903.99a.8.8 0 0 1 .431 1.325l-3.386 3.683a.8.8 0 0 0-.205.633l.574 4.969a.8.8 0 0 1-1.128.819l-4.548-2.082a.8.8 0 0 0-.666 0l-4.548 2.082a.8.8 0 0 1-1.128-.82l.574-4.968a.8.8 0 0 0-.205-.633L98.975 9.8a.8.8 0 0 1 .43-1.325l4.903-.99a.8.8 0 0 0 .539-.391l2.456-4.358Z" fill="#FF7900"/></svg>