<svg width="54" height="18" fill="none" xmlns="http://www.w3.org/2000/svg"><path d="M23.419 17.446h-4.395L21.77.566h4.396l-2.747 16.88ZM15.326.566l-4.19 11.61-.495-2.5-1.479-7.59S8.983.565 7.077.565H.15L.07.85s2.117.44 4.596 1.93l3.819 14.666h4.579L20.056.565h-4.73Zm34.57 16.88h4.035L50.412.565H46.88c-1.631 0-2.029 1.258-2.029 1.258l-6.554 15.623h4.581l.916-2.507h5.587l.515 2.507Zm-4.837-5.971 2.31-6.317 1.298 6.317H45.06Zm-6.42-6.85L39.266 1S37.331.264 35.313.264c-2.18 0-7.36.953-7.36 5.588 0 4.361 6.079 4.415 6.079 6.706 0 2.291-5.452 1.88-7.252.436l-.653 3.79s1.962.954 4.96.954c3 0 7.524-1.553 7.524-5.78 0-4.389-6.133-4.798-6.133-6.706 0-1.909 4.28-1.663 6.161-.627Z" fill="#2566AF"/></svg>