<svg width="24" height="24" fill="none" xmlns="http://www.w3.org/2000/svg"><rect x="2" y="4.75" width="20" height="14.5" rx="3" stroke="#363636" stroke-width="2"/><mask id="a" fill="#fff"><path d="M12.917 12a3.667 3.667 0 0 1 3.666-3.667H21a2 2 0 0 1 2 2v3.334a2 2 0 0 1-2 2h-4.417A3.667 3.667 0 0 1 12.917 12Z"/></mask><path d="M16.583 10.333H21v-4h-4.417v4Zm4.417 0v3.334h4v-3.334h-4Zm0 3.334h-4.417v4H21v-4Zm-4.417 0c-.92 0-1.666-.746-1.666-1.667h-4a5.667 5.667 0 0 0 5.666 5.667v-4Zm4.417 0v4a4 4 0 0 0 4-4h-4Zm0-3.334h4a4 4 0 0 0-4-4v4Zm-4.417-4A5.667 5.667 0 0 0 10.917 12h4c0-.92.746-1.667 1.666-1.667v-4Z" fill="#363636" mask="url(#a)"/><circle cx="16.917" cy="11.917" r=".917" fill="#363636"/></svg>